<svg width="310" height="67" viewBox="0 0 310 67" fill="none" xmlns="http://www.w3.org/2000/svg">
<path d="M85.6088 16.017V37.6152C85.6088 40.9952 85.2032 43.7161 84.392 45.7779C83.5808 47.8397 82.2626 49.3438 80.4374 50.2902C78.6122 51.2028 76.1617 51.6591 73.0859 51.6591C69.9425 51.6591 67.4244 51.2028 65.5316 50.2902C63.6388 49.3438 62.2699 47.8397 61.4249 45.7779C60.5799 43.7161 60.1574 40.9952 60.1574 37.6152V16.017H64.619V37.6152C64.619 40.1164 64.8725 42.1106 65.3795 43.5978C65.9203 45.0512 66.7991 46.099 68.0159 46.7412C69.2327 47.3496 70.8551 47.6538 72.8831 47.6538C74.9111 47.6538 76.5166 47.3496 77.6996 46.7412C78.9164 46.099 79.7952 45.0512 80.336 43.5978C80.8768 42.1106 81.1472 40.1164 81.1472 37.6152V16.017H85.6088ZM106.244 15.5607C108.948 15.5607 111.129 15.8649 112.785 16.4733C114.441 17.0479 115.641 18.0619 116.384 19.5153C117.162 20.9687 117.551 23.0136 117.551 25.65C117.551 27.5428 117.331 29.1314 116.891 30.4158C116.452 31.6664 115.759 32.6466 114.813 33.3564C113.9 34.0324 112.666 34.4718 111.112 34.6746V34.9281C111.686 35.0633 112.244 35.3506 112.785 35.79C113.359 36.1956 113.883 36.7533 114.356 37.4631C114.83 38.1391 115.185 38.9672 115.421 39.9474L118.818 51H114.052L110.96 40.0488C110.52 38.7306 109.929 37.8011 109.185 37.2603C108.441 36.6857 107.478 36.3984 106.295 36.3984C104.233 36.3984 102.442 36.3984 100.921 36.3984C99.4 36.3646 98.1325 36.3308 97.1185 36.297C96.1045 36.2632 95.2933 36.2463 94.6849 36.2463L94.837 32.5452H106.143C107.867 32.5114 109.219 32.3086 110.199 31.9368C111.213 31.565 111.94 30.9059 112.379 29.9595C112.819 28.9793 113.038 27.6273 113.038 25.9035C113.038 24.1797 112.819 22.8615 112.379 21.9489C111.94 21.0025 111.213 20.3434 110.199 19.9716C109.219 19.5998 107.867 19.4139 106.143 19.4139C103.371 19.4139 100.972 19.4308 98.9437 19.4646C96.9495 19.4984 95.5975 19.5153 94.8877 19.5153L94.1779 16.017C95.4623 15.8818 96.6622 15.7804 97.7776 15.7128C98.893 15.6452 100.11 15.6114 101.428 15.6114C102.78 15.5776 104.385 15.5607 106.244 15.5607ZM98.5888 16.017V51H94.1779V16.017H98.5888ZM136.876 15.6114C139.749 15.6114 142.03 15.8818 143.72 16.4226C145.41 16.9296 146.627 17.8422 147.371 19.1604C148.148 20.4786 148.537 22.3376 148.537 24.7374C148.537 27.2386 148.063 29.1483 147.117 30.4665C146.204 31.7847 144.7 32.5452 142.605 32.748V32.9508C145.207 33.1874 147.016 34.1 148.03 35.6886C149.077 37.2772 149.601 39.4742 149.601 42.2796C149.601 44.6794 149.23 46.5384 148.486 47.8566C147.742 49.1748 146.542 50.1043 144.886 50.6451C143.264 51.1521 141.118 51.4056 138.447 51.4056C136.453 51.4056 134.729 51.3887 133.276 51.3549C131.856 51.3549 130.538 51.3211 129.321 51.2535C128.105 51.1859 126.837 51.1014 125.519 51L126.229 47.451C126.972 47.4848 128.375 47.5186 130.437 47.5524C132.532 47.5862 134.966 47.6031 137.738 47.6031C139.597 47.6031 141.05 47.451 142.098 47.1468C143.179 46.8088 143.94 46.2004 144.379 45.3216C144.852 44.4428 145.089 43.1753 145.089 41.5191C145.089 39.6939 144.852 38.2912 144.379 37.311C143.906 36.3308 143.112 35.6379 141.996 35.2323C140.881 34.8267 139.36 34.607 137.433 34.5732H126.178V31.1763H137.383C139.073 31.1425 140.408 30.9735 141.388 30.6693C142.402 30.3313 143.129 29.7398 143.568 28.8948C144.007 28.016 144.227 26.7992 144.227 25.2444C144.227 23.6558 143.991 22.439 143.517 21.594C143.044 20.749 142.25 20.1744 141.134 19.8702C140.053 19.566 138.566 19.4139 136.673 19.4139C135.017 19.4139 133.529 19.4139 132.211 19.4139C130.893 19.4139 129.727 19.4308 128.713 19.4646C127.733 19.4646 126.905 19.4984 126.229 19.566L125.519 16.017C126.702 15.8818 127.817 15.7973 128.865 15.7635C129.947 15.6959 131.113 15.6621 132.363 15.6621C133.648 15.6283 135.152 15.6114 136.876 15.6114ZM129.879 16.017V51H125.519V16.017H129.879ZM170.648 16.017C171.053 16.017 171.408 16.1353 171.712 16.3719C172.017 16.5747 172.219 16.862 172.321 17.2338L183.576 51H178.963L169.887 22.3038C169.752 21.8306 169.6 21.3574 169.431 20.8842C169.296 20.3772 169.161 19.904 169.025 19.4646H167.606C167.471 19.904 167.335 20.3772 167.2 20.8842C167.065 21.3574 166.913 21.8306 166.744 22.3038L157.669 51H153.055L164.31 17.2338C164.412 16.862 164.614 16.5747 164.919 16.3719C165.223 16.1353 165.578 16.017 165.983 16.017H170.648ZM177.137 36.1956V40.0488H159.392V36.1956H177.137ZM215.419 16.017V49.2255C215.419 50.4085 214.845 51 213.696 51H209.335C208.828 51 208.423 50.8817 208.119 50.6451C207.814 50.4085 207.561 50.0536 207.358 49.5804L195.545 24.7881C195.241 24.1121 194.886 23.3516 194.48 22.5066C194.075 21.6616 193.771 20.8842 193.568 20.1744H192.757C192.824 20.918 192.875 21.6785 192.909 22.4559C192.942 23.2333 192.959 24.0107 192.959 24.7881V51H188.498V17.7915C188.498 16.6085 189.089 16.017 190.272 16.017H194.48C194.987 16.017 195.393 16.1353 195.697 16.3719C196.001 16.6085 196.255 16.9634 196.458 17.4366L207.916 41.6205C208.288 42.3303 208.676 43.1415 209.082 44.0541C209.521 44.9329 209.927 45.8117 210.299 46.6905H211.161C211.127 45.7779 211.093 44.8822 211.059 44.0034C211.025 43.1246 211.009 42.2458 211.009 41.367V16.017H215.419ZM228.707 16.017V51H224.245V16.017H228.707ZM244.156 15.9663C245.778 15.9663 247.418 15.9832 249.074 16.017C250.73 16.017 252.369 16.0339 253.992 16.0677C255.614 16.1015 257.169 16.186 258.656 16.3212L258.403 19.7688H245.271C244.088 19.7688 243.227 20.0392 242.686 20.58C242.145 21.087 241.875 21.932 241.875 23.115V51H237.413V22.2531C237.413 20.2589 238.021 18.721 239.238 17.6394C240.455 16.524 242.094 15.9663 244.156 15.9663ZM238.275 31.227H256.476V34.8267H238.275V31.227ZM288.674 16.017L276.861 39.1362H272.855L260.992 16.017H265.757L273.109 30.7707C273.413 31.4129 273.683 32.072 273.92 32.748C274.19 33.424 274.444 34.0831 274.681 34.7253H275.036C275.272 34.0831 275.526 33.424 275.796 32.748C276.066 32.072 276.337 31.4298 276.607 30.8214L283.959 16.017H288.674ZM277.063 35.9928V51H272.602V35.9928H277.063Z" fill="white"/>
<path d="M4.95225 51.25L30.5 7L56.0477 51.25H4.95225Z" stroke="white"/>
<path d="M16.9589 51.2495L30.5004 27.7949L44.0419 51.2495H16.9589Z" fill="white" stroke="white"/>
<line x1="30.5" y1="28.8714" x2="31.4531" y2="7.99991" stroke="white"/>
</svg>
