<svg width="287" height="64" viewBox="0 0 287 64" fill="none" xmlns="http://www.w3.org/2000/svg">
<path d="M82.6088 16.017V37.6152C82.6088 40.9952 82.2032 43.7161 81.392 45.7779C80.5808 47.8397 79.2626 49.3438 77.4374 50.2902C75.6122 51.2028 73.1617 51.6591 70.0859 51.6591C66.9425 51.6591 64.4244 51.2028 62.5316 50.2902C60.6388 49.3438 59.2699 47.8397 58.4249 45.7779C57.5799 43.7161 57.1574 40.9952 57.1574 37.6152V16.017H61.619V37.6152C61.619 40.1164 61.8725 42.1106 62.3795 43.5978C62.9203 45.0512 63.7991 46.099 65.0159 46.7412C66.2327 47.3496 67.8551 47.6538 69.8831 47.6538C71.9111 47.6538 73.5166 47.3496 74.6996 46.7412C75.9164 46.099 76.7952 45.0512 77.336 43.5978C77.8768 42.1106 78.1472 40.1164 78.1472 37.6152V16.017H82.6088ZM103.244 15.5607C105.948 15.5607 108.129 15.8649 109.785 16.4733C111.441 17.0479 112.641 18.0619 113.384 19.5153C114.162 20.9687 114.551 23.0136 114.551 25.65C114.551 27.5428 114.331 29.1314 113.891 30.4158C113.452 31.6664 112.759 32.6466 111.813 33.3564C110.9 34.0324 109.666 34.4718 108.112 34.6746V34.9281C108.686 35.0633 109.244 35.3506 109.785 35.79C110.359 36.1956 110.883 36.7533 111.356 37.4631C111.83 38.1391 112.185 38.9672 112.421 39.9474L115.818 51H111.052L107.96 40.0488C107.52 38.7306 106.929 37.8011 106.185 37.2603C105.441 36.6857 104.478 36.3984 103.295 36.3984C101.233 36.3984 99.442 36.3984 97.921 36.3984C96.4 36.3646 95.1325 36.3308 94.1185 36.297C93.1045 36.2632 92.2933 36.2463 91.6849 36.2463L91.837 32.5452H103.143C104.867 32.5114 106.219 32.3086 107.199 31.9368C108.213 31.565 108.94 30.9059 109.379 29.9595C109.819 28.9793 110.038 27.6273 110.038 25.9035C110.038 24.1797 109.819 22.8615 109.379 21.9489C108.94 21.0025 108.213 20.3434 107.199 19.9716C106.219 19.5998 104.867 19.4139 103.143 19.4139C100.371 19.4139 97.9717 19.4308 95.9437 19.4646C93.9495 19.4984 92.5975 19.5153 91.8877 19.5153L91.1779 16.017C92.4623 15.8818 93.6622 15.7804 94.7776 15.7128C95.893 15.6452 97.1098 15.6114 98.428 15.6114C99.78 15.5776 101.385 15.5607 103.244 15.5607ZM95.5888 16.017V51H91.1779V16.017H95.5888ZM133.876 15.6114C136.749 15.6114 139.03 15.8818 140.72 16.4226C142.41 16.9296 143.627 17.8422 144.371 19.1604C145.148 20.4786 145.537 22.3376 145.537 24.7374C145.537 27.2386 145.063 29.1483 144.117 30.4665C143.204 31.7847 141.7 32.5452 139.605 32.748V32.9508C142.207 33.1874 144.016 34.1 145.03 35.6886C146.077 37.2772 146.601 39.4742 146.601 42.2796C146.601 44.6794 146.23 46.5384 145.486 47.8566C144.742 49.1748 143.542 50.1043 141.886 50.6451C140.264 51.1521 138.118 51.4056 135.447 51.4056C133.453 51.4056 131.729 51.3887 130.276 51.3549C128.856 51.3549 127.538 51.3211 126.321 51.2535C125.105 51.1859 123.837 51.1014 122.519 51L123.229 47.451C123.972 47.4848 125.375 47.5186 127.437 47.5524C129.532 47.5862 131.966 47.6031 134.738 47.6031C136.597 47.6031 138.05 47.451 139.098 47.1468C140.179 46.8088 140.94 46.2004 141.379 45.3216C141.852 44.4428 142.089 43.1753 142.089 41.5191C142.089 39.6939 141.852 38.2912 141.379 37.311C140.906 36.3308 140.112 35.6379 138.996 35.2323C137.881 34.8267 136.36 34.607 134.433 34.5732H123.178V31.1763H134.383C136.073 31.1425 137.408 30.9735 138.388 30.6693C139.402 30.3313 140.129 29.7398 140.568 28.8948C141.007 28.016 141.227 26.7992 141.227 25.2444C141.227 23.6558 140.991 22.439 140.517 21.594C140.044 20.749 139.25 20.1744 138.134 19.8702C137.053 19.566 135.566 19.4139 133.673 19.4139C132.017 19.4139 130.529 19.4139 129.211 19.4139C127.893 19.4139 126.727 19.4308 125.713 19.4646C124.733 19.4646 123.905 19.4984 123.229 19.566L122.519 16.017C123.702 15.8818 124.817 15.7973 125.865 15.7635C126.947 15.6959 128.113 15.6621 129.363 15.6621C130.648 15.6283 132.152 15.6114 133.876 15.6114ZM126.879 16.017V51H122.519V16.017H126.879ZM167.648 16.017C168.053 16.017 168.408 16.1353 168.712 16.3719C169.017 16.5747 169.219 16.862 169.321 17.2338L180.576 51H175.963L166.887 22.3038C166.752 21.8306 166.6 21.3574 166.431 20.8842C166.296 20.3772 166.161 19.904 166.025 19.4646H164.606C164.471 19.904 164.335 20.3772 164.2 20.8842C164.065 21.3574 163.913 21.8306 163.744 22.3038L154.669 51H150.055L161.31 17.2338C161.412 16.862 161.614 16.5747 161.919 16.3719C162.223 16.1353 162.578 16.017 162.983 16.017H167.648ZM174.137 36.1956V40.0488H156.392V36.1956H174.137ZM212.419 16.017V49.2255C212.419 50.4085 211.845 51 210.696 51H206.335C205.828 51 205.423 50.8817 205.119 50.6451C204.814 50.4085 204.561 50.0536 204.358 49.5804L192.545 24.7881C192.241 24.1121 191.886 23.3516 191.48 22.5066C191.075 21.6616 190.771 20.8842 190.568 20.1744H189.757C189.824 20.918 189.875 21.6785 189.909 22.4559C189.942 23.2333 189.959 24.0107 189.959 24.7881V51H185.498V17.7915C185.498 16.6085 186.089 16.017 187.272 16.017H191.48C191.987 16.017 192.393 16.1353 192.697 16.3719C193.001 16.6085 193.255 16.9634 193.458 17.4366L204.916 41.6205C205.288 42.3303 205.676 43.1415 206.082 44.0541C206.521 44.9329 206.927 45.8117 207.299 46.6905H208.161C208.127 45.7779 208.093 44.8822 208.059 44.0034C208.025 43.1246 208.009 42.2458 208.009 41.367V16.017H212.419ZM225.707 16.017V51H221.245V16.017H225.707ZM241.156 15.9663C242.778 15.9663 244.418 15.9832 246.074 16.017C247.73 16.017 249.369 16.0339 250.992 16.0677C252.614 16.1015 254.169 16.186 255.656 16.3212L255.403 19.7688H242.271C241.088 19.7688 240.227 20.0392 239.686 20.58C239.145 21.087 238.875 21.932 238.875 23.115V51H234.413V22.2531C234.413 20.2589 235.021 18.721 236.238 17.6394C237.455 16.524 239.094 15.9663 241.156 15.9663ZM235.275 31.227H253.476V34.8267H235.275V31.227ZM285.674 16.017L273.861 39.1362H269.855L257.992 16.017H262.757L270.109 30.7707C270.413 31.4129 270.683 32.072 270.92 32.748C271.19 33.424 271.444 34.0831 271.681 34.7253H272.036C272.272 34.0831 272.526 33.424 272.796 32.748C273.066 32.072 273.337 31.4298 273.607 30.8214L280.959 16.017H285.674ZM274.063 35.9928V51H269.602V35.9928H274.063Z" fill="#2E2E2E"/>
<path d="M4.55033 49.75L27.5 10L50.4497 49.75H4.55033Z" stroke="#2E2E2E"/>
<path d="M15.3759 49.7497L27.5002 28.7497L39.6246 49.7497H15.3759Z" fill="#007BFF" stroke="#2E2E2E"/>
<line x1="27.5615" y1="29.2042" x2="27.5615" y2="11.245" stroke="#2E2E2E"/>
</svg>
