<svg width="16" height="17" viewBox="0 0 16 17" fill="none" xmlns="http://www.w3.org/2000/svg">
<path d="M13.7164 7.64802H12.5021V3.64802C12.5021 2.38552 11.4789 1.3623 10.2164 1.3623H5.7878C4.5253 1.3623 3.50208 2.38552 3.50208 3.64802V7.64802H2.2878C1.97173 7.64802 1.71637 7.90338 1.71637 8.21945V15.0766C1.71637 15.3927 1.97173 15.648 2.2878 15.648H13.7164C14.0324 15.648 14.2878 15.3927 14.2878 15.0766V8.21945C14.2878 7.90338 14.0324 7.64802 13.7164 7.64802ZM4.7878 3.64802C4.7878 3.09623 5.23601 2.64802 5.7878 2.64802H10.2164C10.7682 2.64802 11.2164 3.09623 11.2164 3.64802V7.64802H4.7878V3.64802ZM13.0021 14.3623H3.00208V8.93373H13.0021V14.3623ZM7.50208 11.8802V12.8266C7.50208 12.9052 7.56637 12.9694 7.64494 12.9694H8.35923C8.4378 12.9694 8.50208 12.9052 8.50208 12.8266V11.8802C8.64949 11.7743 8.75951 11.6245 8.81632 11.4521C8.87312 11.2798 8.87378 11.0939 8.81819 10.9211C8.7626 10.7484 8.65364 10.5977 8.50698 10.4909C8.36033 10.384 8.18355 10.3264 8.00208 10.3264C7.82062 10.3264 7.64384 10.384 7.49719 10.4909C7.35053 10.5977 7.24157 10.7484 7.18598 10.9211C7.13039 11.0939 7.13105 11.2798 7.18785 11.4521C7.24466 11.6245 7.35468 11.7743 7.50208 11.8802V11.8802Z" fill="#1890FF"/>
</svg>
