<svg width="14" height="15" viewBox="0 0 14 15" fill="none" xmlns="http://www.w3.org/2000/svg">
<path d="M13.189 11.9938C12.8521 11.1959 12.3633 10.4711 11.7497 9.85987C11.138 9.24685 10.4133 8.75809 9.61579 8.42059C9.60864 8.41702 9.6015 8.41523 9.59436 8.41166C10.7069 7.60809 11.4301 6.29916 11.4301 4.82237C11.4301 2.37594 9.44793 0.393799 7.0015 0.393799C4.55507 0.393799 2.57293 2.37594 2.57293 4.82237C2.57293 6.29916 3.29614 7.60809 4.40864 8.41344C4.4015 8.41702 4.39436 8.4188 4.38722 8.42237C3.58721 8.75987 2.86936 9.2438 2.25329 9.86166C1.64027 10.4734 1.15151 11.198 0.814001 11.9956C0.482433 12.7764 0.303611 13.6135 0.287215 14.4617C0.286738 14.4807 0.290081 14.4997 0.297047 14.5174C0.304012 14.5352 0.31446 14.5513 0.327773 14.565C0.341086 14.5786 0.356996 14.5895 0.374565 14.5969C0.392135 14.6043 0.411008 14.6081 0.430072 14.6081H1.5015C1.58007 14.6081 1.64257 14.5456 1.64436 14.4688C1.68007 13.0902 2.23364 11.7992 3.21221 10.8206C4.22471 9.80809 5.56936 9.25094 7.0015 9.25094C8.43364 9.25094 9.77829 9.80809 10.7908 10.8206C11.7694 11.7992 12.3229 13.0902 12.3586 14.4688C12.3604 14.5474 12.4229 14.6081 12.5015 14.6081H13.5729C13.592 14.6081 13.6109 14.6043 13.6284 14.5969C13.646 14.5895 13.6619 14.5786 13.6752 14.565C13.6885 14.5513 13.699 14.5352 13.706 14.5174C13.7129 14.4997 13.7163 14.4807 13.7158 14.4617C13.6979 13.6081 13.5211 12.7777 13.189 11.9938ZM7.0015 7.8938C6.18186 7.8938 5.41043 7.57416 4.83007 6.9938C4.24971 6.41344 3.93007 5.64201 3.93007 4.82237C3.93007 4.00273 4.24971 3.2313 4.83007 2.65094C5.41043 2.07058 6.18186 1.75094 7.0015 1.75094C7.82114 1.75094 8.59257 2.07058 9.17293 2.65094C9.75329 3.2313 10.0729 4.00273 10.0729 4.82237C10.0729 5.64201 9.75329 6.41344 9.17293 6.9938C8.59257 7.57416 7.82114 7.8938 7.0015 7.8938Z" fill="#1890FF"/>
</svg>
